<?xml version="1.0" encoding="utf-8"?>
<!-- Generator: Adobe Illustrator 17.0.0, SVG Export Plug-In . SVG Version: 6.00 Build 0)  -->
<!DOCTYPE svg PUBLIC "-//W3C//DTD SVG 1.1//EN" "http://www.w3.org/Graphics/SVG/1.1/DTD/svg11.dtd" [
	<!ENTITY ns_flows "http://ns.adobe.com/Flows/1.0/">
	<!ENTITY ns_extend "http://ns.adobe.com/Extensibility/1.0/">
	<!ENTITY ns_ai "http://ns.adobe.com/AdobeIllustrator/10.0/">
	<!ENTITY ns_graphs "http://ns.adobe.com/Graphs/1.0/">
	<!ENTITY ns_vars "http://ns.adobe.com/Variables/1.0/">
	<!ENTITY ns_imrep "http://ns.adobe.com/ImageReplacement/1.0/">
	<!ENTITY ns_sfw "http://ns.adobe.com/SaveForWeb/1.0/">
	<!ENTITY ns_custom "http://ns.adobe.com/GenericCustomNamespace/1.0/">
	<!ENTITY ns_adobe_xpath "http://ns.adobe.com/XPath/1.0/">
]>
<svg version="1.1" id="Layer_1" xmlns:x="&ns_extend;" xmlns:i="&ns_ai;" xmlns:graph="&ns_graphs;"
	 xmlns="http://www.w3.org/2000/svg" xmlns:xlink="http://www.w3.org/1999/xlink" xmlns:a="http://ns.adobe.com/AdobeSVGViewerExtensions/3.0/"
	 x="0px" y="0px" width="2047.7px" height="2048px" viewBox="0 0 2047.7 2048" style="enable-background:new 0 0 2047.7 2048;"
	 xml:space="preserve">
<style type="text/css">
	.st0{fill:#9CC0FA;}
	.st1{fill:#D8F4F8;}
	.st2{fill:#9DC8D7;}
	.st3{fill:#78ABC3;}
	.st4{fill:#A5C8D5;}
	.st5{fill:#C5E3EB;}
	.st6{fill:#5E6187;}
	.st7{fill:#7EAAC0;}
	.st8{fill:#C7E3EE;}
	.st9{fill:#B5DCE8;}
	.st10{fill:#A5919D;}
	.st11{fill:#86B7CD;}
	.st12{fill:#D8ECF3;}
	.st13{fill:#C3E1EE;}
	.st14{fill:#FFFFFF;}
	.st15{fill:#131F2D;}
	.st16{fill:#ECFCFB;}
	.st17{fill:#A24C3E;}
	.st18{fill:none;stroke:#111111;stroke-miterlimit:10;}
	.st19{fill:#F47459;}
	.st20{adobe-blending-mode:multiply;}
	.st21{adobe-blending-mode:normal;}
	.st22{fill:#EEBB2D;}
	.st23{fill:none;stroke:#A24C3E;stroke-width:0.5;stroke-linecap:round;stroke-miterlimit:10;}
	.st24{fill:#F9E1B1;}
	.st25{fill:#F7D877;}
	.st26{fill:#D6E3DD;}
	.st27{fill:#EAB150;}
	.st28{fill:#F7CD7E;}
	.st29{fill:none;stroke:#E59C0A;stroke-width:0.5;stroke-linecap:round;stroke-miterlimit:10;}
	.st30{fill:#767879;}
	.st31{fill:#919192;}
	.st32{fill:#111111;}
	.st33{fill:none;stroke:#E59C0A;stroke-miterlimit:10;}
	.st34{fill:#A24C3E;adobe-blending-mode:multiply;}
	.st35{fill:#FF9685;}
	.st36{fill:#E3EEEC;}
	.st37{fill:#3E4754;}
	.st38{fill:#0364A1;}
	.st39{fill:#FDFDFD;}
</style>
<metadata>
	<sfw  xmlns="&ns_sfw;">
		<slices></slices>
		<sliceSourceBounds  width="1922.8" height="1182.8" y="-425.9" x="-695.3" bottomLeftOrigin="true"></sliceSourceBounds>
	</sfw>
</metadata>
<g>
	<path class="st0" d="M1791.8,1200.7c-328.4-145-726.4,71.1-1098.5,31.9c-189.8-20-398.4-70.4-568.5,10.4
		c-154.5,73.4,1.9,607.7,1391.5,425.1C2012.9,1602.8,2155.4,1361.2,1791.8,1200.7z"/>
	<polyline class="st1" points="347.3,1216.4 347.3,1216.4 353.6,1182 379.4,1180.5 382.7,987.1 401.2,988.3 408.9,884.5 
		463.4,883.7 464.9,971.5 492.1,968 494.5,981.9 507.7,981.1 512.3,919.8 573,914 578.6,955.1 590.9,953.4 604,804.2 681.8,808.6 
		685.5,905.2 705.2,905 706.6,976.7 713.7,977.6 724.4,806.9 736.3,803.7 741.5,752.7 760.4,746.8 774.6,670 773.8,744.9 
		785.2,754.4 787.1,796.6 793.8,800.1 795,924.1 805.9,1019.2 817,949.4 854.8,945.9 863.2,795 933.4,793.4 945.6,1023.4 
		959,1021.8 960.3,926.1 981.5,920.8 983.8,777.9 997.1,775.3 991.3,659.1 1070.6,642.6 1065.5,766.7 1077.9,769.5 1079.6,895.1 
		1088.1,896 1095.4,948.6 1105.9,949.7 1109.7,829.6 1180.5,834.5 1191.7,981.2 1200,982.1 1203.6,897.7 1257.5,896.5 1262.9,964.9 
		1276.3,966.7 1286.9,1050.2 1304.2,1050.1 1307.9,1073.5 1315.8,1075.2 1318.2,898.3 1384.6,895.8 1384.6,834.5 1455.4,835.7 
		1467.8,943.1 1481.8,945.1 1478.7,871.6 1542.4,868.3 1560.7,944.9 1585.9,945.1 1585.3,917.3 1647.9,916.1 1657.7,916.5 
		1667.7,1196.6 1669.1,1193.2 1685.4,1194.9 1686.9,993.9 1756.9,991.6 1759.2,1187.2 1812.9,1190.3 1812.4,1203.5 	"/>
	<g>
		<polygon class="st2" points="1406.1,954.3 1406.1,984.6 1362.5,984.6 1362.5,1315.1 1453.5,1315.1 1453.5,997.2 1453.5,984.6 
			1453.5,954.3 		"/>
		<polygon class="st2" points="838.7,1157.9 838.7,1105.8 783,1105.8 783,1157.9 762.1,1157.9 762.1,1315.7 858.9,1315.7 
			858.9,1157.9 		"/>
		<rect x="772.9" y="1242.5" class="st3" width="75.3" height="73.8"/>
		<polygon class="st4" points="1003.1,937.7 1003.1,955.4 891.8,955.4 891.8,937.7 858.9,937.7 858.9,1316.2 1035.4,1316.2 
			1035.4,937.7 		"/>
		<rect x="780.5" y="1169.9" class="st5" width="60.7" height="22.9"/>
		<rect x="1373.2" y="1010.9" class="st3" width="60.7" height="22.9"/>
		<rect x="1373.2" y="1059.5" class="st3" width="60.7" height="22.9"/>
		<rect x="1373.2" y="1108.1" class="st3" width="60.7" height="22.9"/>
		<rect x="1373.2" y="1156.7" class="st6" width="60.7" height="22.9"/>
		<rect x="1373.2" y="1205.3" class="st6" width="60.7" height="22.9"/>
		<rect x="1373.2" y="1253.9" class="st6" width="60.7" height="22.9"/>
		<polyline class="st7" points="1051.4,1114.4 1035.6,1114.4 1035.6,1316.2 1110.9,1316.2 1110.9,1114.4 1095.7,1114.4 		"/>
		<rect x="888.5" y="992.1" class="st8" width="25.5" height="41.5"/>
		<rect x="935.5" y="992.1" class="st8" width="25.5" height="41.5"/>
		<rect x="982.4" y="992.1" class="st8" width="25.5" height="41.5"/>
		<rect x="888.5" y="1055.6" class="st8" width="25.5" height="41.5"/>
		<rect x="935.5" y="1055.6" class="st8" width="25.5" height="41.5"/>
		<rect x="982.4" y="1055.6" class="st8" width="25.5" height="41.5"/>
		<rect x="888.5" y="1119" class="st8" width="25.5" height="41.5"/>
		<rect x="935.5" y="1119" class="st8" width="25.5" height="41.5"/>
		<rect x="982.4" y="1119" class="st8" width="25.5" height="41.5"/>
		<rect x="888.5" y="1182.5" class="st8" width="25.5" height="41.5"/>
		<rect x="935.5" y="1182.5" class="st8" width="25.5" height="41.5"/>
		<rect x="982.4" y="1182.5" class="st8" width="25.5" height="41.5"/>
		<rect x="921.8" y="1265.6" class="st7" width="54.3" height="50.6"/>
		<rect x="1050.8" y="1128.3" class="st9" width="17" height="15.3"/>
		<rect x="1080.3" y="1128.3" class="st9" width="17" height="15.3"/>
		<rect x="1050.8" y="1155" class="st9" width="17" height="15.3"/>
		<rect x="1080.3" y="1155" class="st9" width="17" height="15.3"/>
		<rect x="1050.8" y="1181.7" class="st9" width="17" height="15.3"/>
		<rect x="1080.3" y="1181.7" class="st9" width="17" height="15.3"/>
		<rect x="1050.8" y="1208.4" class="st9" width="17" height="15.3"/>
		<rect x="1080.3" y="1208.4" class="st9" width="17" height="15.3"/>
		<rect x="1050.8" y="1235" class="st9" width="17" height="15.3"/>
		<rect x="1080.3" y="1235" class="st9" width="17" height="15.3"/>
		<rect x="1050.8" y="1261.7" class="st9" width="17" height="15.3"/>
		<rect x="1080.3" y="1261.7" class="st9" width="17" height="15.3"/>
		<rect x="1050.3" y="1095.7" class="st3" width="51.5" height="19"/>
		<rect x="1059.5" y="1076.6" class="st3" width="33.2" height="19"/>
		<polygon class="st7" points="510.7,977.2 510.7,1005.7 510.7,1017.5 510.7,1316.4 596.3,1316.4 596.3,1005.7 555.3,1005.7 
			555.3,977.2 		"/>
		<line class="st10" x1="731.3" y1="978.2" x2="626.6" y2="978.2"/>
		<polyline class="st11" points="596.3,961.6 596.3,1317.5 762.2,1317.5 762.2,961.6 		"/>
		<rect x="529.1" y="1030.4" class="st9" width="57.1" height="21.5"/>
		<rect x="529.1" y="1076.1" class="st9" width="57.1" height="21.5"/>
		<rect x="529.1" y="1121.8" class="st9" width="57.1" height="21.5"/>
		<rect x="529.1" y="1167.5" class="st9" width="57.1" height="21.5"/>
		<rect x="529.1" y="1213.2" class="st9" width="57.1" height="21.5"/>
		<rect x="529.1" y="1258.9" class="st9" width="57.1" height="21.5"/>
		<polygon class="st4" points="476.8,1127.7 476.8,1317.5 547.5,1317.5 547.5,1127.7 532.7,1127.7 532.7,1069.1 491,1069.1 
			491,1127.7 		"/>
		<rect x="642.6" y="1259.1" class="st5" width="71.2" height="57.1"/>
		<rect x="491.7" y="1146.1" class="st3" width="15.9" height="25.8"/>
		<rect x="520.9" y="1146.1" class="st3" width="15.9" height="25.8"/>
		<rect x="491.7" y="1185.5" class="st3" width="15.9" height="25.8"/>
		<rect x="520.9" y="1185.5" class="st3" width="15.9" height="25.8"/>
		<rect x="491.7" y="1225" class="st3" width="15.9" height="25.8"/>
		<rect x="520.9" y="1225" class="st3" width="15.9" height="25.8"/>
		<rect x="491.7" y="1264.4" class="st3" width="15.9" height="25.8"/>
		<rect x="520.9" y="1264.4" class="st3" width="15.9" height="25.8"/>
		<polyline class="st2" points="1721.9,1094.6 1698.7,1094.6 1698.7,1317.5 1814,1317.5 1814,1094.6 1789.8,1094.6 		"/>
		<g>
			<rect x="610.9" y="1011.6" class="st5" width="139.3" height="20.7"/>
			<rect x="610.9" y="1049.5" class="st5" width="139.3" height="20.7"/>
			<rect x="610.9" y="1087.4" class="st5" width="139.3" height="20.7"/>
			<rect x="610.9" y="1125.2" class="st5" width="139.3" height="20.7"/>
			<rect x="610.9" y="1163.1" class="st5" width="139.3" height="20.7"/>
			<rect x="610.9" y="1201" class="st5" width="139.3" height="20.7"/>
		</g>
		<g>
			<g>
				<polygon class="st12" points="1121.8,1065.5 1110.7,1057.5 1172.9,1007.3 1330.6,1007.3 1330.6,1051.5 1228.4,1113.7 				"/>
				<polyline class="st3" points="1338.4,1015 1330.6,1007.3 1279.5,1057.5 1259.5,1069.6 1228.5,1274.3 1275.2,1316.5 
					1383.9,1316.5 1383.9,1059.5 1359.3,1035.5 				"/>
				<rect x="1110.7" y="1057.5" class="st2" width="168.8" height="259"/>
				<rect x="1176.2" y="1253.3" class="st7" width="31.1" height="63.3"/>
				<rect x="1129.5" y="1070.6" class="st8" width="128.8" height="24.1"/>
				<rect x="1129.5" y="1118.8" class="st8" width="128.8" height="24.1"/>
				<rect x="1129.5" y="1166.9" class="st8" width="128.8" height="24.1"/>
				<rect x="1129.5" y="1215.1" class="st8" width="128.8" height="24.1"/>
			</g>
			<rect x="1304.3" y="1067.8" class="st9" width="20.9" height="18.9"/>
			<rect x="1340.6" y="1067.8" class="st9" width="20.9" height="18.9"/>
			<rect x="1304.3" y="1100.7" class="st9" width="20.9" height="18.9"/>
			<rect x="1340.6" y="1100.7" class="st9" width="20.9" height="18.9"/>
			<rect x="1304.3" y="1133.5" class="st9" width="20.9" height="18.9"/>
			<rect x="1340.6" y="1133.5" class="st9" width="20.9" height="18.9"/>
			<rect x="1304.3" y="1166.4" class="st9" width="20.9" height="18.9"/>
			<rect x="1340.6" y="1166.4" class="st9" width="20.9" height="18.9"/>
			<rect x="1304.3" y="1199.3" class="st9" width="20.9" height="18.9"/>
			<rect x="1340.6" y="1199.3" class="st9" width="20.9" height="18.9"/>
			<rect x="1304.3" y="1232.1" class="st9" width="20.9" height="18.9"/>
			<rect x="1340.6" y="1232.1" class="st9" width="20.9" height="18.9"/>
		</g>
		<polygon class="st13" points="731.6,941.3 619,941.3 619,921.4 709.1,890.1 731.6,890.1 		"/>
		<polygon class="st13" points="755.5,954.2 604,954.2 604,942.2 733.1,909.8 755.5,909.8 		"/>
		<rect x="596" y="946.4" class="st7" width="166.2" height="25.8"/>
		<rect x="790.4" y="1072.5" class="st2" width="41.1" height="19.4"/>
		<rect x="789.1" y="1086.8" class="st3" width="43.6" height="19.4"/>
		<g>
			<g>
				<rect x="1719.1" y="1110.1" class="st8" width="19.6" height="24.8"/>
			</g>
			<g>
				<rect x="1719.1" y="1142" class="st8" width="19.6" height="24.8"/>
			</g>
			<g>
				<rect x="1719.1" y="1174" class="st8" width="19.6" height="24.8"/>
			</g>
			<g>
				<rect x="1719.1" y="1205.9" class="st8" width="19.6" height="24.8"/>
			</g>
			<g>
				<rect x="1719.1" y="1237.8" class="st8" width="19.6" height="24.8"/>
			</g>
			<g>
				<rect x="1719.1" y="1269.7" class="st8" width="19.6" height="24.8"/>
			</g>
		</g>
		<rect x="1750.5" y="1110.1" class="st3" width="48.4" height="56.8"/>
		<rect x="1750.6" y="1175" class="st3" width="48.4" height="56.7"/>
		<rect x="1750.7" y="1239.8" class="st3" width="48.4" height="56.8"/>
		<g>
			<rect x="1729.3" y="1077.3" class="st3" width="2.8" height="17.5"/>
			<rect x="1784" y="1077.3" class="st3" width="2.8" height="17.5"/>
			<rect x="1716.7" y="1046.7" class="st3" width="82.6" height="30.6"/>
		</g>
		<g>
			<rect x="1384.2" y="1150.1" class="st2" width="223.8" height="168.6"/>
			<rect x="1608.1" y="1150.1" class="st3" width="90.6" height="168.6"/>
			<rect x="1412.5" y="1122.4" class="st2" width="72.6" height="27.7"/>
			<rect x="1485.2" y="1122.4" class="st3" width="25.5" height="27.7"/>
			<rect x="1550.6" y="1122.4" class="st2" width="72.6" height="27.7"/>
			<rect x="1623.2" y="1122.4" class="st3" width="25.5" height="27.7"/>
			<rect x="1414.5" y="1182.2" class="st8" width="170.3" height="15.1"/>
			<rect x="1414.5" y="1209.8" class="st8" width="170.3" height="15.1"/>
			<rect x="1414.5" y="1237.4" class="st8" width="170.3" height="15.1"/>
			<rect x="1626.3" y="1174.2" class="st9" width="22.3" height="21.9"/>
			<rect x="1626.3" y="1212.3" class="st9" width="22.3" height="21.9"/>
			<rect x="1626.3" y="1250.3" class="st9" width="22.3" height="21.9"/>
			<rect x="1466.4" y="1272.6" class="st7" width="69.6" height="46.1"/>
		</g>
		<g>
			<g>
				<rect x="430.9" y="1047" class="st3" width="45.7" height="270.5"/>
				<polygon class="st3" points="476.6,955.6 430.9,1047 476.6,1047 				"/>
			</g>
			<polygon class="st12" points="476.6,955.6 335.7,1047 430.9,1047 			"/>
			<rect x="335.7" y="1047" class="st2" width="95.2" height="270.5"/>
			<g>
				<g>
					<rect x="358.1" y="1065.3" class="st8" width="99.7" height="20.7"/>
					<rect x="358.1" y="1103.2" class="st8" width="99.7" height="20.7"/>
					<rect x="358.1" y="1141.2" class="st8" width="99.7" height="20.7"/>
					<rect x="358.1" y="1179.1" class="st8" width="99.7" height="20.7"/>
					<rect x="358.1" y="1217" class="st8" width="99.7" height="20.7"/>
					<rect x="358.1" y="1254.9" class="st8" width="99.7" height="20.7"/>
				</g>
			</g>
		</g>
	</g>
	<g>
		<path class="st14" d="M1991.8,1314.1c-443.3-18.6-1429.5-58.8-1680.8-60.7l-16.9,10.1c0,0,1001,37.4,1673.5,70.8L1991.8,1314.1z"
			/>
		<path class="st14" d="M1416.5,1447.2c0,0,348.7-79.3,464.3-120.4l-23.9,1l-503.4,115.6"/>
		<path class="st14" d="M821.9,1391.3c0,0,351-46.8,467.8-73.9l-23.9-0.3L759,1385.7"/>
		<path class="st14" d="M359.3,1367.4c0,0,449.8-30.3,599.2-48.8l-30.7-0.5l-649.5,44.5"/>
		<path class="st14" d="M83.1,1340.8l-10.5,13.4c382.4,27.7,1188.3,87.2,1668.2,129.8l30.6-21C1771.4,1463,617.8,1374.5,83.1,1340.8
			z"/>
	</g>
	<g>
		
			<ellipse id="XMLID_101_" transform="matrix(-0.9999 1.440037e-002 -1.440037e-002 -0.9999 922.903 2579.7161)" class="st15" cx="452.2" cy="1293.2" rx="32.5" ry="52.8"/>
		
			<ellipse id="XMLID_99_" transform="matrix(-0.9999 1.438845e-002 -1.438845e-002 -0.9999 949.3428 2583.0222)" class="st16" cx="465.4" cy="1294.9" rx="15" ry="35.4"/>
		<g id="XMLID_93_">
			
				<ellipse id="XMLID_98_" transform="matrix(-0.9999 1.439704e-002 -1.439704e-002 -0.9999 819.5406 2565.6614)" class="st15" cx="400.5" cy="1285.8" rx="32.1" ry="37.2"/>
			
				<ellipse id="XMLID_94_" transform="matrix(-0.9999 1.440753e-002 -1.440753e-002 -0.9999 841.2955 2566.7917)" class="st16" cx="411.4" cy="1286.4" rx="15.2" ry="27.9"/>
		</g>
		<path id="XMLID_92_" class="st15" d="M544.9,1289.3c0.3,22.9,13.6,37.8,36.5,37.4c22.9-0.3,35.7-19.5,35.4-42.4
			c-0.3-22.9-14-41.2-37-40.8C557,1243.9,544.6,1266.4,544.9,1289.3z"/>
		<path id="XMLID_90_" class="st16" d="M565.9,1290.2c0.2,16.7,8.5,27.6,22.8,27.4c14.2-0.2,22.2-14.1,21.9-30.9
			c-0.2-16.7-8.8-30-23-29.8C573.3,1257,565.7,1273.4,565.9,1290.2z"/>
		<g id="XMLID_75_">
			
				<ellipse id="XMLID_81_" transform="matrix(-0.9999 1.439847e-002 -1.439847e-002 -0.9999 490.0526 2585.1694)" class="st15" cx="235.7" cy="1294.3" rx="36.3" ry="44.4"/>
			
				<ellipse id="XMLID_77_" transform="matrix(-0.9999 1.439918e-002 -1.439918e-002 -0.9999 509.5526 2586.0129)" class="st16" cx="245.5" cy="1294.8" rx="25.2" ry="37.6"/>
			
				<ellipse id="XMLID_76_" transform="matrix(-0.9999 1.439918e-002 -1.439918e-002 -0.9999 512.1638 2581.9507)" class="st15" cx="246.8" cy="1292.8" rx="16.4" ry="26.4"/>
		</g>
		<path id="XMLID_74_" class="st15" d="M433.7,1309.5c0,0-146.8,4.6-174.4,1.1c-27.6-3.5-23.1-31.8-23.1-31.8l197,10
			C433.2,1288.7,433.9,1304.2,433.7,1309.5z"/>
		<path id="XMLID_72_" class="st17" d="M192.7,1293.3c0,0,7,1.4,7.4-5.5l68.1,1.5l3.6,4.6l52.1,1l3.9-5.1l86.8,1.8l0.8,2.1
			c1.6,4,5.3,6.8,9.6,7.3c1.6,0.2,3.3,0.3,5.1,0.4c6.3,0.5,11.8-3.9,13-10c2.8-15.1,9.5-43.8,21.6-53.5c2.4-1.9,5-3.1,7.8-3.3
			c0,0,30.6,4.1,11.2,71.1l65-1.6c0,0,24.5-8.9,27.6-13.6c3.1-4.7,11.9-72.3,26.9-47.9c0,0,2.4,5.2,1.9,10l3.8,4.2
			c0,0-0.2-16-7.2-33c-0.3-0.8-0.7-1.6-1.1-2.4c-4.2-9.4-10.5-18.8-20.1-25.9c0,0-47.8-74.9-88.5-81.4c0,0-122.1-21.4-214.8-0.8
			c0,0-34.2,35.8-40.5,50.3c-1.6,3.7-9.2,6.9-14.9,9.5c-3.3,1.6-5.9,3-6.3,4.1c0,0-6.5,20.9-5.9,30.7c0,0.6,0,1.1-0.2,1.7
			c-0.3,1.3-1,2.5-2,3.3C201.1,1218.8,186,1238.1,192.7,1293.3z"/>
		<polygon id="XMLID_71_" class="st18" points="265.7,1285.5 329.2,1286.7 324,1295 271.9,1294 		"/>
		<path id="XMLID_70_" class="st18" d="M565.6,1186.2"/>
		<path id="XMLID_67_" class="st19" d="M410.3,1176.3c0,0-168.5,9-181.1,2.4c0,0-3.5,59.7,11.9,61.5c28,3.3,109,9.6,142.2-4
			C398,1230.2,408.2,1179,410.3,1176.3z"/>
		<g id="XMLID_59_" class="st20">
			<g class="st21">
				<g id="XMLID_116_">
					<path class="st22" d="M263.9,1196.4c0.1-0.8,0.1-1.6,0.2-2.5l0.1,0C264.1,1194.7,264,1195.6,263.9,1196.4z"/>
				</g>
				<g id="XMLID_115_">
					<path class="st22" d="M356.1,1213.9c-0.8,2.3-1.9,4.5-3.1,6.4C354.2,1218.3,355.2,1216.2,356.1,1213.9z"/>
				</g>
			</g>
		</g>
		<path id="XMLID_57_" class="st19" d="M468.6,1190.6c0,0,22.3,50.8,23.5,57.2c1.2,6.4,2.2,43.3,2.2,43.3l82-0.5
			c3.1-4.7,11.9-72.3,26.9-47.9c0,0,2.4,5.2,1.9,10l3.8,4.2c0,0-0.2-16-7.2-33c0.1-0.6-0.3-1.4-1.1-2.4c0,0-6.9-16.6-34.2-24.3
			c-2.9-0.8-6.1-1.6-9.6-2.2c0,0-23.4-8.7-47.7-16.9c-0.1,0-0.2,0-0.2-0.1c-22.6-7.7-46-14.9-51.7-14.3
			C457.4,1163.8,469.9,1181.7,468.6,1190.6z"/>
		
			<rect id="XMLID_55_" x="319.3" y="1110.2" transform="matrix(-0.9999 1.439680e-002 -1.439680e-002 -0.9999 694.7071 2221.51)" class="st22" width="40.1" height="6.1"/>
		<path id="XMLID_54_" class="st15" d="M200.2,1289.6l68.1,1.5l3.6,4.6l52.1,1l3.9-5.1l86.8,1.8c0,0-1.7-13.6-29.2-13.7
			c-41.5,0-166.2-1.2-166.2-1.2S194.4,1277.7,200.2,1289.6z"/>
		<path id="XMLID_53_" class="st15" d="M483.7,1305.8c0,0,7.4-46.1-23.7-62.8c0,0,10.5-18.6,23.2-5.3
			C483.2,1237.7,505.6,1246,483.7,1305.8z"/>
		<path id="XMLID_50_" class="st23" d="M522.4,1183.4c0,0,11.9,17.7,10.4,43c0,0.5-0.1,1-0.1,1.4c-2.1,26.1-1.9,62.8-1.9,62.8"/>
		<g id="XMLID_1_">
			<path id="XMLID_47_" class="st16" d="M236.9,1163.8c17.6,11,187.5,0.3,187.5,0.3c1.5-0.7,3.3-1.2,5.3-1.5
				c4.6-0.7,10.4-0.6,16.2-0.1l11.4,1.3c0,0-8.3-53.9-41.6-54.1c0,0-89.8-3.1-126.5,1.4c-0.1,0-0.1,0-0.2,0
				c-5.1,0.6-9.2,1.4-11.8,2.4l0,0c-0.3,0.4-4.5,4.7-10,10.8C256.6,1136.1,240.9,1154.4,236.9,1163.8z"/>
			<path id="XMLID_45_" class="st16" d="M510,1177.7c0,0-16.1-51.3-26-57.7c0,0-30.5-2.8-34.4,2.3c0,0,21.4,34.9,20.4,44.2
				c0,0,39.9,11.3,39.9,12"/>
			<path id="XMLID_43_" class="st16" d="M554.2,1187c0,0-26.3-8.9-30.4-6.3c0,0-16.2-48.1-28.9-59.9c0,0,18.5,2,46.7,30.8
				C548.1,1158.2,553.2,1184.4,554.2,1187z"/>
			<g id="XMLID_41_">
				<defs>
					<path id="XMLID_42_" d="M236.9,1163.8c17.6,11,187.5,0.3,187.5,0.3c1.5-0.7,3.3-1.2,5.3-1.5c4.6-0.7,10.4-0.6,16.2-0.1
						l11.4,1.3c0,0-8.3-53.9-41.6-54.1c0,0-89.8-3.1-126.5,1.4c-0.1,0-0.1,0-0.2,0c-5.1,0.6-9.2,1.4-11.8,2.4l0,0
						c-0.3,0.4-4.5,4.7-10,10.8C256.6,1136.1,240.9,1154.4,236.9,1163.8z"/>
				</defs>
				<clipPath id="XMLID_83_">
					<use xlink:href="#XMLID_42_"  style="overflow:visible;"/>
				</clipPath>
			</g>
			<path id="XMLID_40_" class="st15" d="M267.3,1124.3c0.7-0.2,1.4-0.6,2.2-1.1c17-11.3,101.3-5.2,135-7.3c43.1-2.6,24.5,46,24.5,46
				l28.6,2.6c0,0-9.2-57.3-41.8-54.8c0,0-85.1-6-126.5,1.4c-0.1,0-0.1,0-0.2,0c-5.1,0.6-9.2,1.4-11.8,2.4l0,0
				C277,1113.9,272.8,1118.2,267.3,1124.3z"/>
			<g id="XMLID_38_">
				<defs>
					<path id="XMLID_39_" d="M510,1177.7c0,0-16.1-51.3-26-57.7c0,0-30.5-2.8-34.4,2.3c0,0,21.4,34.9,20.4,44.2
						c0,0,39.9,11.3,39.9,12"/>
				</defs>
				<clipPath id="XMLID_84_">
					<use xlink:href="#XMLID_39_"  style="overflow:visible;"/>
				</clipPath>
			</g>
			<g id="XMLID_3_">
				<defs>
					<path id="XMLID_37_" d="M554.2,1187c0,0-26.3-8.9-30.4-6.3c0,0-16.2-48.1-28.9-59.9c0,0,18.5,2,46.7,30.8
						C548.1,1158.2,553.2,1184.4,554.2,1187z"/>
				</defs>
				<clipPath id="XMLID_85_">
					<use xlink:href="#XMLID_37_"  style="overflow:visible;"/>
				</clipPath>
			</g>
		</g>
		<g>
			<polygon class="st14" points="283.7,1198.7 320.6,1198.1 319.5,1229.9 282.6,1230.5 			"/>
		</g>
		<g>
			<path class="st14" d="M233.4,1187.1c3.7-0.1,6.5,4.2,6.3,9.5c-0.2,5.3-3.3,9.6-7,9.7c-3.7,0.1-6.5-4.2-6.3-9.5
				C226.6,1191.5,229.8,1187.2,233.4,1187.1z"/>
		</g>
		<g>
			<path class="st24" d="M241.1,1172.5l2.2,40.5l-27.6,0.5l0.6-18.6C223.6,1175.2,240.3,1172.6,241.1,1172.5z M232.8,1206.3
				c3.7-0.1,6.8-4.4,7-9.7s-2.6-9.6-6.3-9.5c-3.7,0.1-6.8,4.4-7,9.7C226.3,1202.1,229.1,1206.4,232.8,1206.3"/>
		</g>
		<g>
			<polygon class="st14" points="320.6,1198.1 357.5,1197.5 356.4,1229.3 319.5,1229.9 			"/>
		</g>
		<g>
			<path class="st24" d="M407.6,1170.8c0.9,0.1,18.6,1.4,25.8,21.7l0.3,19.8l-29.3,2L407.6,1170.8z M415.9,1206.1
				c3.9-0.3,7-5,6.9-10.7c-0.1-5.6-3.3-10-7.2-9.8c-3.9,0.3-7,5.1-6.9,10.7C408.8,1202,412,1206.4,415.9,1206.1"/>
		</g>
		<g>
			<path class="st14" d="M415.5,1185.7c3.9-0.3,7.1,4.1,7.2,9.8c0.1,5.6-3,10.4-6.9,10.7c-3.9,0.3-7.1-4.1-7.2-9.7
				C408.6,1190.8,411.7,1185.9,415.5,1185.7z"/>
		</g>
	</g>
	<g id="XMLID_321_">
		<g>
			<g id="XMLID_19_">
				<path class="st25" d="M1045.4,1263.5l-0.3-0.3c0-0.3,0-0.5,0-0.8C1045.2,1262.7,1045.3,1263.1,1045.4,1263.5z"/>
			</g>
		</g>
	</g>
	<g>
		
			<ellipse id="XMLID_504_" transform="matrix(-0.9999 1.440037e-002 -1.440037e-002 -0.9999 1761.1349 2605.5193)" class="st15" cx="871.2" cy="1309.1" rx="37" ry="60"/>
		
			<ellipse id="XMLID_503_" transform="matrix(-0.9999 1.438845e-002 -1.438845e-002 -0.9999 1791.1908 2609.2817)" class="st16" cx="886.2" cy="1311.1" rx="17.1" ry="40.2"/>
		<g id="XMLID_152_">
			
				<ellipse id="XMLID_501_" transform="matrix(-0.9999 1.439704e-002 -1.439704e-002 -0.9999 1643.6442 2589.5447)" class="st15" cx="812.5" cy="1300.7" rx="36.5" ry="42.2"/>
			
				<ellipse id="XMLID_500_" transform="matrix(-0.9999 1.440753e-002 -1.440753e-002 -0.9999 1668.371 2590.8259)" class="st16" cx="824.9" cy="1301.4" rx="17.3" ry="31.7"/>
		</g>
		<path id="XMLID_536_" class="st15" d="M976.6,1304.7c0.4,26.1,15.5,42.9,41.5,42.6c26.1-0.4,40.6-22.1,40.2-48.2
			c-0.4-26.1-15.9-46.8-42-46.4C990.3,1253,976.3,1278.6,976.6,1304.7z"/>
		<path id="XMLID_535_" class="st16" d="M1000.5,1305.7c0.3,19,9.7,31.3,25.9,31.1c16.2-0.2,25.2-16.1,24.9-35.1s-10-34.1-26.2-33.9
			C1008.9,1268,1000.2,1286.7,1000.5,1305.7z"/>
		<g id="XMLID_80_">
			<g id="XMLID_523_">
				<polygon id="XMLID_524_" class="st26" points="1029.2,1287.6 1033.5,1290.6 1039.2,1277 1033,1272.9 				"/>
			</g>
			<g id="XMLID_520_">
				<polygon id="XMLID_522_" class="st26" points="1036.7,1294.2 1037.8,1300.4 1049.4,1298.7 1048.4,1291.3 				"/>
			</g>
			<g id="XMLID_517_">
				<polygon id="XMLID_518_" class="st26" points="1034.6,1310 1031.1,1314.3 1040.2,1324.9 1045,1318.7 				"/>
			</g>
		</g>
		<g id="XMLID_154_">
			
				<ellipse id="XMLID_498_" transform="matrix(-0.9999 1.439847e-002 -1.439847e-002 -0.9999 1269.1171 2611.7188)" class="st15" cx="625.2" cy="1310.4" rx="41.3" ry="50.5"/>
			
				<ellipse id="XMLID_497_" transform="matrix(-0.9999 1.439918e-002 -1.439918e-002 -0.9999 1291.2826 2612.6772)" class="st16" cx="636.2" cy="1311" rx="28.6" ry="42.7"/>
			
				<ellipse id="XMLID_496_" transform="matrix(-0.9999 1.439918e-002 -1.439918e-002 -0.9999 1294.2506 2608.0601)" class="st15" cx="637.7" cy="1308.7" rx="18.7" ry="30"/>
		</g>
		<path id="XMLID_499_" class="st15" d="M850.2,1327.6c0,0-166.9,5.2-198.2,1.2c-31.3-4-26.3-36.2-26.3-36.2l224,11.4
			C849.7,1304,850.4,1321.6,850.2,1327.6z"/>
		<path id="XMLID_563_" class="st27" d="M576.3,1309.3c0,0,8,1.6,8.4-6.2l77.4,1.7l4.1,5.2l59.2,1.2l4.4-5.8l98.7,2l0.9,2.3
			c1.8,4.6,6,7.8,10.9,8.2c1.8,0.2,3.8,0.4,5.8,0.5c7.1,0.5,13.5-4.4,14.8-11.4c3.2-17.2,10.9-49.8,24.6-60.8
			c2.7-2.2,5.7-3.5,8.8-3.7c0,0,34.8,4.7,12.7,80.8l73.9-1.8c0,0,27.8-10.1,31.4-15.5c3.6-5.3,13.5-82.2,30.6-54.4
			c0,0,2.7,5.9,2.2,11.4l4.3,4.8c0,0-0.3-18.2-8.2-37.5c-0.4-0.9-0.8-1.8-1.2-2.8c-4.7-10.7-11.9-21.4-22.8-29.4
			c0,0-54.3-85.1-100.6-92.6c0,0-138.8-24.3-244.2-0.9c0,0-38.9,40.7-46,57.2c-1.8,4.2-10.5,7.8-16.9,10.8c-3.8,1.8-6.8,3.4-7.2,4.7
			c0,0-7.4,23.7-6.7,34.9c0,0.7,0,1.3-0.2,1.9c-0.3,1.5-1.1,2.8-2.3,3.8C585.8,1224.5,568.6,1246.4,576.3,1309.3z"/>
		<polygon id="XMLID_561_" class="st18" points="659.3,1300.4 731.4,1301.8 725.5,1311.2 666.3,1310 		"/>
		<path id="XMLID_550_" class="st18" d="M1000.1,1187.5"/>
		<path id="XMLID_540_" class="st28" d="M823.6,1176.2c0,0-191.6,10.3-205.8,2.8c0,0-3.9,67.8,13.6,69.9
			c31.8,3.8,123.9,11,161.7-4.6C809.6,1237.5,821.2,1179.3,823.6,1176.2z"/>
		<g id="XMLID_96_" class="st20">
			<g class="st21">
				<g id="XMLID_30_">
					<path class="st22" d="M657.1,1199.1c0.1-0.9,0.1-1.9,0.2-2.8l0.2,0C657.4,1197.2,657.3,1198.1,657.1,1199.1z"/>
				</g>
				<g id="XMLID_29_">
					<path class="st22" d="M762,1219c-1,2.7-2.1,5.2-3.6,7.3C759.8,1224,761,1221.5,762,1219z"/>
				</g>
			</g>
		</g>
		<path id="XMLID_543_" class="st28" d="M889.9,1192.5c0,0,25.3,57.8,26.7,65.1c1.3,7.3,2.5,49.2,2.5,49.2l93.2-0.5
			c3.6-5.3,13.5-82.2,30.6-54.4c0,0,2.7,5.9,2.2,11.4l4.3,4.8c0,0-0.3-18.2-8.2-37.5c0.1-0.7-0.4-1.6-1.2-2.8
			c0,0-7.9-18.9-38.9-27.6c-3.3-0.9-7-1.8-10.9-2.4c0,0-26.6-9.9-54.2-19.3c-0.1,0-0.2,0-0.2-0.1c-25.7-8.7-52.2-16.9-58.8-16.3
			C877.1,1162.1,891.4,1182.3,889.9,1192.5z"/>
		
			<rect id="XMLID_537_" x="720.2" y="1101.1" transform="matrix(-0.9999 1.439680e-002 -1.439680e-002 -0.9999 1501.7467 2198.3501)" class="st22" width="45.6" height="7"/>
		<path id="XMLID_560_" class="st15" d="M584.8,1305.1l77.4,1.7l4.1,5.2l59.2,1.2l4.4-5.8l98.7,2c0,0-1.9-15.5-33.2-15.5
			c-47.2,0-188.9-1.3-188.9-1.3S578.2,1291.5,584.8,1305.1z"/>
		<path id="XMLID_82_" class="st15" d="M907,1323.5c0,0,8.4-52.4-26.9-71.4c0,0,11.9-21.2,26.3-6
			C906.5,1246.1,931.9,1255.4,907,1323.5z"/>
		<path id="XMLID_542_" class="st29" d="M951,1184.3c0,0,13.6,20.1,11.8,48.8c0,0.5-0.1,1.1-0.1,1.6c-2.4,29.6-2.2,71.4-2.2,71.4"/>
		<g id="XMLID_157_">
			<path id="XMLID_79_" class="st16" d="M626.5,1162c20,12.5,213.2,0.4,213.2,0.4c1.7-0.8,3.7-1.4,6.1-1.7
				c5.2-0.8,11.8-0.7,18.4-0.1l13,1.5c0,0-9.4-61.3-47.3-61.5c0,0-102.1-3.5-143.8,1.6c-0.1,0-0.1,0-0.2,0
				c-5.8,0.7-10.4,1.6-13.4,2.7l0,0c-0.4,0.4-5.1,5.3-11.4,12.3C648.9,1130.5,631,1151.3,626.5,1162z"/>
			<path id="XMLID_552_" class="st16" d="M936.9,1177.8c0,0-18.3-58.3-29.5-65.6c0,0-34.7-3.1-39.1,2.6c0,0,24.3,39.7,23.2,50.2
				c0,0,45.4,12.8,45.4,13.6"/>
			<path id="XMLID_551_" class="st16" d="M987.1,1188.4c0,0-29.9-10.1-34.6-7.2c0,0-18.4-54.6-32.9-68.1c0,0,21,2.2,53.1,35
				C980.2,1155.7,986.1,1185.4,987.1,1188.4z"/>
			<g id="XMLID_311_">
				<defs>
					<path id="XMLID_228_" d="M626.5,1162c20,12.5,213.2,0.4,213.2,0.4c1.7-0.8,3.7-1.4,6.1-1.7c5.2-0.8,11.8-0.7,18.4-0.1l13,1.5
						c0,0-9.4-61.3-47.3-61.5c0,0-102.1-3.5-143.8,1.6c-0.1,0-0.1,0-0.2,0c-5.8,0.7-10.4,1.6-13.4,2.7l0,0
						c-0.4,0.4-5.1,5.3-11.4,12.3C648.9,1130.5,631,1151.3,626.5,1162z"/>
				</defs>
				<clipPath id="XMLID_86_">
					<use xlink:href="#XMLID_228_"  style="overflow:visible;"/>
				</clipPath>
			</g>
			<path id="XMLID_557_" class="st15" d="M661,1117.2c0.8-0.3,1.6-0.7,2.5-1.3c19.3-12.8,115.1-6,153.5-8.3
				c49-3,27.9,52.3,27.9,52.3l32.5,2.9c0,0-10.5-65.1-47.5-62.3c0,0-96.7-6.9-143.8,1.6c-0.1,0-0.1,0-0.2,0
				c-5.8,0.7-10.4,1.6-13.4,2.7l0,0C672,1105.3,667.3,1110.2,661,1117.2z"/>
			<g id="XMLID_312_">
				<defs>
					<path id="XMLID_234_" d="M936.9,1177.8c0,0-18.3-58.3-29.5-65.6c0,0-34.7-3.1-39.1,2.6c0,0,24.3,39.7,23.2,50.2
						c0,0,45.4,12.8,45.4,13.6"/>
				</defs>
				<clipPath id="XMLID_87_">
					<use xlink:href="#XMLID_234_"  style="overflow:visible;"/>
				</clipPath>
			</g>
			<g id="XMLID_315_">
				<defs>
					<path id="XMLID_308_" d="M987.1,1188.4c0,0-29.9-10.1-34.6-7.2c0,0-18.4-54.6-32.9-68.1c0,0,21,2.2,53.1,35
						C980.2,1155.7,986.1,1185.4,987.1,1188.4z"/>
				</defs>
				<clipPath id="XMLID_88_">
					<use xlink:href="#XMLID_308_"  style="overflow:visible;"/>
				</clipPath>
			</g>
		</g>
		<g>
			<polygon class="st30" points="679.7,1201.7 721.7,1201 720.4,1237.1 678.5,1237.8 			"/>
		</g>
		<g>
			<g>
				<path class="st19" d="M622.5,1188.5c4.2-0.1,7.4,4.8,7.2,10.8s-3.8,11-7.9,11c-4.2,0.1-7.4-4.8-7.2-10.8
					S618.4,1188.6,622.5,1188.5z"/>
			</g>
		</g>
		<g class="st20">
			<g class="st21">
				<path class="st17" d="M631.3,1171.9l2.5,46l-31.3,0.5l0.7-21.1C611.3,1175,630.3,1172,631.3,1171.9z M621.8,1210.4
					c4.2-0.1,7.7-5,7.9-11c0.2-6-3-10.9-7.2-10.8c-4.2,0.1-7.7,5-7.9,11.1C614.4,1205.6,617.6,1210.4,621.8,1210.4"/>
			</g>
		</g>
		<g>
			<polygon class="st31" points="721.7,1201 763.6,1200.3 762.3,1236.4 720.4,1237.1 			"/>
		</g>
		<g class="st20">
			<g class="st21">
				<path class="st17" d="M820.6,1169.9c1.1,0.1,21.2,1.6,29.3,24.6l0.4,22.5l-33.2,2.2L820.6,1169.9z M829.9,1210.2
					c4.4-0.3,7.9-5.7,7.8-12.2c-0.1-6.4-3.8-11.4-8.2-11.1c-4.4,0.3-7.9,5.8-7.8,12.2C821.9,1205.5,825.5,1210.5,829.9,1210.2"/>
			</g>
		</g>
		<g>
			<g>
				<path class="st19" d="M829.6,1186.9c4.4-0.3,8.1,4.7,8.2,11.1c0.1,6.4-3.4,11.9-7.8,12.2c-4.4,0.3-8.1-4.7-8.2-11.1
					C821.7,1192.7,825.1,1187.2,829.6,1186.9z"/>
			</g>
		</g>
	</g>
	<g>
		<g id="XMLID_227_">
			<g id="XMLID_223_">
				<ellipse id="XMLID_682_" class="st15" cx="1280.2" cy="1312.2" rx="41.8" ry="57.3"/>
				<ellipse id="XMLID_681_" class="st16" cx="1299.3" cy="1312" rx="21.4" ry="46.1"/>
			</g>
			<g id="XMLID_211_">
				<ellipse id="XMLID_678_" class="st15" cx="1588.4" cy="1293.5" rx="32.6" ry="85.6"/>
				<ellipse id="XMLID_677_" class="st16" cx="1602.1" cy="1295.3" rx="12.8" ry="57.3"/>
			</g>
			<g id="XMLID_666_">
				<ellipse id="XMLID_671_" class="st15" cx="1089.8" cy="1311.4" rx="59.4" ry="81.6"/>
				<ellipse id="XMLID_670_" class="st16" cx="1104.1" cy="1314.8" rx="35.7" ry="69.1"/>
			</g>
			<g id="XMLID_202_">
				<ellipse id="XMLID_582_" class="st15" cx="1475.8" cy="1310.3" rx="54.2" ry="81.6"/>
				<ellipse id="XMLID_581_" class="st16" cx="1495.5" cy="1309.9" rx="26.3" ry="58"/>
			</g>
		</g>
		<path id="XMLID_711_" class="st19" d="M1620.8,1302.8c0,0,4.4-84.4-7.4-75.8c0,0-14.7,13.8-13.9,52.2c0,0,0.8,46.1-18.3,49.7
			l-53.7,5.4c0,0,9.3-34.2-8.4-73.3c0,0-1.4-67.5-20.9-40.1c-1.2,1.7-1.4,2.7-3.4,7.7c-5.9,14.6-17.4,48.6-15.8,90l-0.1,0.4
			c-0.2,0.9-0.8,3.1-1.8,6l0,0.1c-1.6,4.7-4.4,10.8-8.4,14.7c0,0-28.3,1-70.7,2.1c-97.1,2.5-268,5.4-341.2-2.7
			c-7-0.7-13.1-1.6-18.1-2.6c0,0-6-9.6-8.6-19.9c-0.9-3.6-1.4-7.2-1.1-10.5c0,0,0.3-74.2,19-104.4c0,0-1.6-44,39.2-56.3
			c0,0,9.2-8.7,22.8-21.2c33.4-30.8,93.4-84.6,108.5-88.1c0,0,119.9-35.1,260.2-12.2c0,0,43.5-3.8,78.9,42.4c0,0,7.6,9.9,14.9,24.6
			c5.4,10.9,10.6,24.3,12.3,38.2c0,0,0.1,0.1,0.3,0.3c2.2,2.4,17.6,19.2,20.4,25.5c3.2,7.3,10.9,44.5,14.4,60.6
			C1619.5,1215.6,1639.2,1277.9,1620.8,1302.8z"/>
		<path id="XMLID_479_" class="st15" d="M1530.6,1043.4c0,0-42.8-31.7-42,3.4c0,0,7.5,91.2,22.5,105.8c0,0,63.4-12.5,72.8-22.8
			C1587.2,1126.1,1557.9,1059,1530.6,1043.4z"/>
		<path id="XMLID_476_" class="st16" d="M1496.3,1072.4c0,0-4.9-29,6.1-31.8c0,0,8.7-1.7,10.2,0.4c11.8,16.7,27.2,44.7,35.5,80.3
			c0,0-23.2,14.7-33.4,6.9C1504.5,1120.6,1496.3,1072.4,1496.3,1072.4z"/>
		<path id="XMLID_473_" class="st16" d="M1524.9,1047.3c0,0,36.4,20.1,46.2,65.5c0,0-17.9,6.8-19.8,5.2
			c-1.9-1.6-15.2-48.7-27.7-66.6C1523.5,1051.4,1520.3,1046.5,1524.9,1047.3z"/>
		<path id="XMLID_470_" class="st15" d="M1220.7,1041.2c10.7-2.1,164.3-31.4,253.2-0.1c2.7,0.9,4.5,3.5,4.5,6.3
			c0.4,17.7,0.7,79.2-14,73.6c0,0-256.4-1.2-327.2,1.2c-6.2,0.2-9.5-7.3-5.1-11.8c20.3-20.5,60.8-59.1,87.4-68.9
			C1220,1041.4,1220.3,1041.3,1220.7,1041.2z"/>
		<path id="XMLID_467_" class="st16" d="M1159.3,1111.8c-5.4,0.1-8.1-6.5-4.2-10.2c21.8-20.7,49.4-44,67.7-50.8
			c7.6-1.5,75.4-14.3,145-14.3c39.2,0,71.7,4,97,11.8c2.4,0.8,4.1,3,4.1,5.6c0.2,21.8-1.2,42.4-3.7,52.8c-0.6,2.6-3,4.5-5.8,4.5
			c-17-0.1-73.7-0.3-135.5-0.3C1238.4,1110.9,1188.5,1111.3,1159.3,1111.8z"/>
		<g id="XMLID_221_">
			<defs>
				<path id="XMLID_216_" d="M1159.3,1111.8c-5.4,0.1-8.1-6.5-4.2-10.2c21.8-20.7,49.4-44,67.7-50.8c7.6-1.5,75.4-14.3,145-14.3
					c39.2,0,71.7,4,97,11.8c2.4,0.8,4.1,3,4.1,5.6c0.2,21.8-1.2,42.4-3.7,52.8c-0.6,2.6-3,4.5-5.8,4.5c-17-0.1-73.7-0.3-135.5-0.3
					C1238.4,1110.9,1188.5,1111.3,1159.3,1111.8z"/>
			</defs>
			<clipPath id="XMLID_89_">
				<use xlink:href="#XMLID_216_"  style="overflow:visible;"/>
			</clipPath>
		</g>
		<g id="XMLID_135_">
			<defs>
				<path id="XMLID_69_" d="M1496.3,1072.4c0,0-4.9-29,6.1-31.8c0,0,8.7-1.7,10.2,0.4c11.8,16.7,27.2,44.7,35.5,80.3
					c0,0-23.2,14.7-33.4,6.9C1504.5,1120.6,1496.3,1072.4,1496.3,1072.4z"/>
			</defs>
			<clipPath id="XMLID_91_">
				<use xlink:href="#XMLID_69_"  style="overflow:visible;"/>
			</clipPath>
		</g>
		<g id="XMLID_220_">
			<defs>
				<path id="XMLID_189_" d="M1524.9,1047.3c0,0,36.4,20.1,46.2,65.5c0,0-17.9,6.8-19.8,5.2c-1.9-1.6-15.2-48.7-27.7-66.6
					C1523.5,1051.4,1520.3,1046.5,1524.9,1047.3z"/>
			</defs>
			<clipPath id="XMLID_95_">
				<use xlink:href="#XMLID_189_"  style="overflow:visible;"/>
			</clipPath>
		</g>
		<path id="XMLID_8_" class="st32" d="M1610,1230.9c0,0,6-19.2,10.5,8.5c4.5,27.7,1,56-0.5,56
			C1618.5,1295.4,1620.8,1265.1,1610,1230.9z"/>
		<path id="XMLID_15_" class="st32" d="M1491.7,1233.2c0,0,13.7,3.4,27.4,27.8c0,0,2.3-47.4-11.3-47.4
			C1507.8,1213.6,1497.2,1212.9,1491.7,1233.2z"/>
		<path id="XMLID_463_" class="st17" d="M1620.5,1303c0,0,4.2-80.7-7.1-76c0,0-6,4.2-11.9,25.5c0,0-3-21.1,8.8-31.9
			c3.9-3.5,10.2-1.5,11.5,3.6C1626.3,1242.1,1634.6,1283.8,1620.5,1303z"/>
		<path id="XMLID_27_" class="st33" d="M1519.9,1262.1"/>
		<path id="XMLID_28_" class="st33" d="M1507.8,1154.4"/>
		<path id="XMLID_347_" class="st17" d="M1599.5,1279.2c0,0,0.8,46.1-18.3,49.7l-53.7,5.4l2.5-20.8l52-6.2c0,0,7.7-0.8,17.1-37.1
			c0.5-2,1-3.5,1.6-4.6C1599.9,1270.1,1599.5,1274.7,1599.5,1279.2z"/>
		<path id="XMLID_35_" class="st17" d="M1485.2,1258.5c0,0,4.4-60.9,28.5-48.9c5,2.5,10.6,14.3,5.5,50.7c0,0-2.3-49.5-13.9-45.8
			C1505.3,1214.6,1498.6,1212.9,1485.2,1258.5z"/>
		<path id="XMLID_439_" class="st34" d="M1478.9,1318.6l-0.1,0.4l-1.8,6l0,0.1c-1.7,4.7-4.4,10.8-8.4,14.7c0,0-28.3,1-70.7,2.1
			c-97.1,2.5-268,5.4-341.2-2.7c-7-0.8-13-1.6-18.1-2.6c0,0-6-9.6-8.6-19.9c10.8,4.4,73.3,27.9,167.9,20.5c0,0,202.3,1.2,225.1-10.9
			c7.8-4.2,32.1-15.2,32.1-15.2s4.2,9.1,7.1,10.3C1466,1323,1478.9,1318.6,1478.9,1318.6z"/>
		<path id="XMLID_508_" class="st35" d="M1605.1,1155c0,0-21.2,36.5-135.6,10c0,0-1.9-9.3-5.2-13.6c0,0,42.1,13.1,119.6-21.6
			c0.3-0.1,0.6-0.3,0.9-0.4C1586.9,1131.8,1602.3,1148.7,1605.1,1155z"/>
		<path id="XMLID_454_" class="st23" d="M1559.9,1141.4c0,0,31.8,63.2,4.1,170.9"/>
		<g>
			<path class="st15" d="M1053.9,1238.4c0,0-1.6,12.3,22.7,15.6c24.3,3.2,45.5-2.6,51.3,17.3c5.9,20-5.9,38.8,32.9,44.1
				c38.8,5.3,138,11.2,143.7-4.7c5.7-15.9-6.1-42.3,18.6-47s81.1,1.2,94.7-6.5c13.5-7.6,14.1-17.1,5.9-23.5
				c-8.2-6.5-315.1-5.9-332.5-5.9S1053.9,1226,1053.9,1238.4z"/>
		</g>
		<g>
			<path class="st14" d="M1163.1,1250.6l118.8-0.9c4,0,7,3.7,6.1,7.6l-2.7,12.1c-0.6,2.8-3.2,4.9-6.1,4.9H1166c-2.8,0-5.3-1.9-6-4.6
				l-2.9-11.2C1156.1,1254.5,1159,1250.7,1163.1,1250.6z"/>
		</g>
		<g>
			<path class="st15" d="M1310.4,1214.6h-146.6c-6.4,0-12.5-2.5-17-7l-3-3c-4.2-4.2-9.9-6.6-15.9-6.6h-13.5v-1.6h13.5
				c6.4,0,12.5,2.5,17,7l3,3c4.2,4.2,9.9,6.6,15.9,6.6h146.6c3.8,0,7.5-1,10.8-2.8l19.8-10.9c3.5-1.9,7.5-3,11.6-3h19.7v1.6h-19.7
				c-3.8,0-7.5,1-10.8,2.8l-19.8,10.9C1318.4,1213.6,1314.4,1214.6,1310.4,1214.6z"/>
		</g>
		<g>
			<g>
				<g>
					<path class="st24" d="M1128.4,1180.5c-7.8,18.2-28.9,33-47.1,33c-18.2,0-26.7-14.8-18.9-33c7.8-18.2,28.9-33,47.1-33
						C1127.7,1147.5,1136.2,1162.3,1128.4,1180.5z"/>
				</g>
			</g>
			<g>
				<path class="st15" d="M1087.8,1211.6c-7.9,0-14.2-2.9-17.7-8.3c-3.9-5.9-4-14.3-0.3-23c7.3-17.1,27.2-31,44.3-31
					c2.7,0,5.3,0.4,7.6,1.1c0.2,0.1,0.3,0.3,0.2,0.5c-0.1,0.2-0.3,0.3-0.5,0.2c-2.3-0.7-4.7-1-7.4-1c-16.8,0-36.4,13.7-43.6,30.6
					c-3.6,8.5-3.5,16.6,0.2,22.3c3.4,5.1,9.4,8,17.1,8c3.3,0,6.7-0.5,10.3-1.5c0.2-0.1,0.4,0.1,0.5,0.3c0.1,0.2-0.1,0.4-0.3,0.5
					C1094.7,1211.1,1091.2,1211.6,1087.8,1211.6z"/>
			</g>
		</g>
		<g>
			<g>
				<g>
					<path class="st24" d="M1437.1,1180.5c-7.8,18.2-28.9,33-47.1,33s-26.7-14.8-18.9-33c7.8-18.2,28.9-33,47.1-33
						C1436.5,1147.5,1444.9,1162.3,1437.1,1180.5z"/>
				</g>
			</g>
			<g>
				<path class="st15" d="M1396.6,1211.6c-7.9,0-14.2-2.9-17.7-8.3c-3.9-5.9-4-14.3-0.3-23c7.3-17.1,27.2-31,44.3-31
					c2.7,0,5.3,0.4,7.6,1.1c0.2,0.1,0.3,0.3,0.2,0.5c-0.1,0.2-0.3,0.3-0.5,0.2c-2.3-0.7-4.7-1-7.4-1c-16.8,0-36.4,13.7-43.6,30.6
					c-3.6,8.5-3.5,16.6,0.2,22.3c3.4,5.1,9.4,8,17.1,8c3.3,0,6.7-0.5,10.3-1.5c0.2-0.1,0.4,0.1,0.5,0.3c0.1,0.2-0.1,0.4-0.3,0.5
					C1403.4,1211.1,1399.9,1211.6,1396.6,1211.6z"/>
			</g>
		</g>
		<g>
			<ellipse class="st36" cx="1227.7" cy="1196" rx="9.3" ry="4.5"/>
		</g>
		<g>
			<path class="st15" d="M1081.9,1288.3c0,9.8-7.2,20.1-18.3,20.1s-18.3-10.4-18.3-20.1c0-9.8,9-18.9,20.1-18.9
				C1076.6,1269.5,1081.9,1278.6,1081.9,1288.3z"/>
		</g>
		<g>
			<path class="st15" d="M1434.7,1288.3c0,9.8-7.2,20.1-18.3,20.1c-11.1,0-18.3-10.4-18.3-20.1c0-9.8,9-18.9,20.1-18.9
				C1429.4,1269.5,1434.7,1278.6,1434.7,1288.3z"/>
		</g>
		<g>
			<path class="st15" d="M1494.4,1129.8c0,0-10.7-10.1-5.2-27.1c5.5-16.9,47.5-5.5,51.9,3c4.4,8.5-12.8,23-24.3,25.4
				c-11.5,2.5-9,23.2-17.8,22.1s-15.7-7.1-11.4-10.9C1492,1138.6,1499.9,1133.1,1494.4,1129.8z"/>
		</g>
		<g>
			
				<ellipse transform="matrix(0.9632 -0.2687 0.2687 0.9632 -262.6794 463.0006)" class="st15" cx="1560.2" cy="1191.2" rx="7.7" ry="11.2"/>
		</g>
	</g>
	<g>
		<g>
			<polyline class="st37" points="1666.4,612.4 1657.1,1532.3 1687.4,1532.3 1682.7,600.3 			"/>
			<polygon class="st37" points="1650.3,1532.3 1696.3,1532.3 1702.8,1548 1643.8,1548 			"/>
		</g>
		<g>
			<path class="st38" d="M1534.7,675.7c0-39.9,0.4-79.8-0.2-119.8c-0.3-19.1,13.5-33.3,32.8-32.8c18.9,0.5,37.9,0.1,56.8,0.1
				c61.1,0,122.3,0,183.4,0c11.8,0,21.4,4.1,27.9,14.3c3.1,4.9,4.4,10.3,4.4,16.1c0,63.2,0,126.4,0,189.6c0,18.2,0,36.4,0,54.7
				c-0.1,17.6-12.8,30.5-30.4,30.5c-42.1,0.1-84.2,0-126.3,0c-38.9,0-77.8,0-116.7,0c-19.3,0-31.7-12.3-31.7-31.7
				C1534.6,756.4,1534.7,716,1534.7,675.7z M1564.5,558.9l-0.4,0.1l0.1,0.3c-0.1,1.4-0.3,2.9-0.3,4.3c0,40,0,80.1,0,120.1
				c0,24,0.1,48,0.2,72c-0.7,3.7-2.5,7.3-0.2,11c0.1,8.5,0.2,16.9,0.3,25.4c-0.1,0.1-0.1,0.1-0.2,0.2c0.1,0.1,0.3,0.2,0.4,0.3
				c14.3,0.8,28.6,0,42.9,0.4c3.3,0.1,4.1-0.9,4-4.1c-0.1-26.6,0-53.2-0.2-79.8c0-3.9,1-4.7,4.8-4.7c22.1,0,44.3,0.8,66.3-1.7
				c16.1-1.8,30.1-8,41.6-19.4c15-14.9,20.1-33.6,19.7-54.2c-0.3-16.2-3.8-31.5-14-44.7c-13.5-17.5-31.9-24.2-53.4-25.1
				c-25-1.1-50-0.5-75-0.9C1589,558.3,1576.7,558.8,1564.5,558.9z M1691.2,738.5c-3.3,3-3.7,6.5-3.7,10.2c0.1,7.7,0.2,15.3-0.1,23
				c-0.1,3.7,0.6,5.5,4.7,4.8c2.4-0.5,3.3,0.6,3.2,3.1c-0.2,3.5,0,6.9-0.1,10.4c-0.1,2.1,0.4,3.2,2.8,3.1c5.8-0.2,11.6-0.1,17.4,0
				c2.4,0.1,3-0.9,2.9-3c-0.1-3.2,0.2-6.4-0.1-9.5c-0.3-3.2,0.7-4.2,4-4.1c13.6,0.2,27.2,0.1,40.8,0.1c6.9,0,6-0.9,6,5.9
				c0,10.7,0,10.7,10.8,10.6c3.9,0,8.9,1.6,11.3-0.7c2.6-2.5,0.9-7.7,0.8-11.6c-0.1-3.4,0.9-4.9,4.3-4.3c2.9,0.5,3.7-0.8,3.6-3.6
				c-0.2-7.9-0.2-15.9,0-23.9c0.1-3.9-0.4-7.5-3.7-10.5c4-1,7.6-2,11.3-2.8c4.4-1.1,2.4-4.6,2.7-7.1c0.3-2.7-1.8-2.9-3.8-2.9
				c-4.8,0-9.6-0.2-14.3,0.2c-2.2,0.2-2.7-0.5-3.2-2.2c-1.7-5.5-3.8-10.9-5.4-16.4c-0.7-2.2-1.7-3-4-2.9c-23.9,0.1-47.7,0.1-71.6,0
				c-2.2,0-3.3,0.6-4,2.9c-1.5,5.1-3.5,10.1-4.9,15.2c-0.8,2.9-2,3.7-5.1,3.4c-4.1-0.5-8.4-0.1-12.6-0.1c-2.1,0-4.4,0-4.2,3
				c0.2,2.7-1.6,6.3,3.2,7.2C1683.9,736.4,1687.3,737.5,1691.2,738.5z M1560.2,764.7c0.2-0.2,0.3-0.3,0.5-0.5
				c0.1,0.1,0.2,0.3,0.2,0.3c-0.1,0.2-0.2,0.5-0.4,0.7C1560.4,765.1,1560.3,765,1560.2,764.7z"/>
			<path class="st39" d="M1564.1,755.8c-0.1-24-0.1-48-0.2-72c0-40,0-80.1,0-120.1c0-1.4,0.2-2.9,0.3-4.3c0.2-0.1,0.3-0.2,0.2-0.5
				c12.3-0.2,24.6-0.6,36.8-0.4c25,0.3,50-0.2,75,0.9c21.5,0.9,39.8,7.6,53.4,25.1c10.2,13.2,13.6,28.4,14,44.7
				c0.4,20.6-4.7,39.3-19.7,54.2c-11.5,11.4-25.5,17.6-41.6,19.4c-22.1,2.5-44.2,1.7-66.3,1.7c-3.8,0-4.8,0.8-4.8,4.7
				c0.2,26.6,0,53.2,0.2,79.8c0,3.2-0.7,4.2-4,4.1c-14.3-0.4-28.6,0.3-42.9-0.4c0.1-0.2,0-0.4-0.2-0.5c-0.1-8.5-0.2-16.9-0.3-25.4
				C1565.1,763.2,1564.7,759.5,1564.1,755.8z M1611.4,631.5c0,10,0.1,20,0,29.9c0,2.3,0.4,3.4,3,3.3c16.3-0.3,32.7,0.5,49-1.1
				c23.6-2.4,35-19.3,30.3-42c-2.4-11.6-14.9-21-28.6-22.3c-16.9-1.6-33.8-0.8-50.7-1.1c-2.6,0-3.1,0.9-3.1,3.3
				C1611.4,611.6,1611.3,621.5,1611.4,631.5z"/>
			<path class="st39" d="M1691.2,738.5c-3.9-1-7.3-2.1-10.8-2.7c-4.8-0.9-3-4.5-3.2-7.2c-0.2-3,2.1-3,4.2-3c4.2,0,8.4-0.4,12.6,0.1
				c3,0.3,4.2-0.5,5.1-3.4c1.4-5.1,3.5-10.1,4.9-15.2c0.7-2.3,1.8-2.9,4-2.9c23.9,0,47.7,0,71.6,0c2.3,0,3.3,0.7,4,2.9
				c1.7,5.5,3.7,10.9,5.4,16.4c0.5,1.7,1,2.4,3.2,2.2c4.7-0.4,9.5-0.2,14.3-0.2c2,0,4.1,0.3,3.8,2.9c-0.3,2.6,1.7,6.1-2.7,7.1
				c-3.6,0.9-7.3,1.8-11.3,2.8c3.3,3.1,3.8,6.6,3.7,10.5c-0.1,8-0.1,15.9,0,23.9c0.1,2.8-0.7,4.1-3.6,3.6c-3.5-0.6-4.4,0.9-4.3,4.3
				c0.1,4,1.9,9.1-0.8,11.6c-2.4,2.3-7.4,0.6-11.3,0.7c-10.8,0.1-10.8,0-10.8-10.6c0-6.8,0.9-5.9-6-5.9c-13.6,0-27.2,0.1-40.8-0.1
				c-3.3,0-4.3,1-4,4.1c0.3,3.2,0,6.4,0.1,9.5c0.1,2.2-0.5,3.1-2.9,3c-5.8-0.1-11.6-0.2-17.4,0c-2.5,0.1-2.9-1-2.8-3.1
				c0.1-3.5-0.1-6.9,0.1-10.4c0.1-2.5-0.8-3.6-3.2-3.1c-4,0.8-4.8-1.1-4.7-4.8c0.3-7.7,0.1-15.3,0.1-23
				C1687.5,745,1687.9,741.5,1691.2,738.5z M1743.7,735.7c11.6,0,23.1-0.1,34.7,0.1c3,0,3.4-0.6,2.3-3.4c-2.2-5.4-4.4-10.9-5.8-16.5
				c-0.6-2.7-1.5-3.2-3.8-3.2c-18.2,0-36.4,0.1-54.7,0c-2.6,0-3.5,1.1-4.2,3.3c-1.7,5.5-3.4,11-5.5,16.4c-1.2,3.2,0,3.5,2.7,3.5
				C1720.8,735.6,1732.3,735.7,1743.7,735.7z M1770.6,762.4c2,0,4,0,6.1,0c7.2,0,10.8-2.8,13-9.6c0.7-2.1,0.4-2.9-1.9-2.8
				c-4.9,0.1-9.8,0-14.7,0c-6.9,0-10.6,2.8-12.8,9.4c-0.7,2.2-0.5,3.3,2.1,3.1C1765.1,762.3,1767.8,762.4,1770.6,762.4z
				 M1716.6,762.4c3,0,6.1,0,9.1,0c1.4,0,2.1-0.4,1.8-2.1c-0.8-5-5.5-10.1-10.3-10.3c-5.9-0.3-11.8,0-17.7-0.1
				c-2.1,0-2.3,0.8-1.8,2.7c1.8,6.5,6,9.8,12.9,9.8C1712.6,762.4,1714.6,762.4,1716.6,762.4z"/>
			<path class="st38" d="M1611.4,631.5c0-10,0.1-20,0-29.9c0-2.4,0.5-3.3,3.1-3.3c16.9,0.3,33.8-0.5,50.7,1.1
				c13.7,1.3,26.1,10.8,28.6,22.3c4.7,22.6-6.7,39.6-30.3,42c-16.3,1.6-32.6,0.8-49,1.1c-2.6,0-3.1-1.1-3-3.3
				C1611.4,651.5,1611.4,641.5,1611.4,631.5z"/>
			<path class="st38" d="M1743.7,735.7c-11.4,0-22.9-0.1-34.3,0c-2.8,0-4-0.3-2.7-3.5c2.1-5.4,3.7-10.9,5.5-16.4
				c0.7-2.1,1.6-3.3,4.2-3.3c18.2,0.1,36.4,0.1,54.7,0c2.4,0,3.2,0.6,3.8,3.2c1.4,5.7,3.6,11.1,5.8,16.5c1.1,2.8,0.7,3.4-2.3,3.4
				C1766.8,735.6,1755.3,735.7,1743.7,735.7z"/>
			<path class="st38" d="M1770.6,762.4c-2.7,0-5.5-0.1-8.2,0c-2.6,0.1-2.8-0.9-2.1-3.1c2.1-6.5,5.9-9.4,12.8-9.4
				c4.9,0,9.8,0.1,14.7,0c2.3,0,2.6,0.7,1.9,2.8c-2.2,6.8-5.8,9.6-13,9.6C1774.6,762.4,1772.6,762.4,1770.6,762.4z"/>
			<path class="st38" d="M1716.6,762.4c-2,0-4,0-6.1,0c-6.9,0-11.1-3.3-12.9-9.8c-0.5-1.9-0.3-2.7,1.8-2.7
				c5.9,0.1,11.8-0.2,17.7,0.1c4.8,0.2,9.5,5.3,10.3,10.3c0.3,1.6-0.4,2.1-1.8,2.1C1722.7,762.4,1719.7,762.4,1716.6,762.4z"/>
		</g>
	</g>
</g>
</svg>
