<svg id="svg" version="1.1" xmlns="http://www.w3.org/2000/svg" xmlns:xlink="http://www.w3.org/1999/xlink" width="400" height="259.68468468468467" viewBox="0, 0, 400,259.68468468468467"><g id="svgg"><path id="path0" d="M114.100 1.633 C 113.626 6.973,113.409 8.809,112.923 11.599 C 104.245 61.323,52.324 91.790,3.329 75.907 L -0.000 74.828 -0.000 167.256 L 0.000 259.685 143.356 259.685 C 222.202 259.685,286.712 259.648,286.712 259.603 C 286.712 259.117,288.006 253.377,288.546 251.464 C 300.942 207.603,346.458 181.872,391.287 193.385 C 393.920 194.061,397.687 195.233,399.155 195.833 C 399.530 195.986,399.550 191.244,399.550 98.110 L 399.550 0.225 256.887 0.225 L 114.225 0.225 114.100 1.633 " stroke="none" fill="#fce444" fill-rule="evenodd"></path><path id="path1" d="M0.056 37.444 L 0.113 74.662 2.252 75.410 C 17.105 80.600,34.762 81.389,50.450 77.563 C 82.790 69.678,107.586 43.183,112.924 10.808 C 113.495 7.348,113.962 3.022,113.963 1.182 L 113.964 0.225 56.981 0.225 L -0.001 0.225 0.056 37.444 M363.964 190.921 C 327.098 193.699,296.886 218.741,288.079 253.821 C 287.587 255.781,287.115 257.902,287.031 258.535 L 286.879 259.685 343.215 259.685 L 399.551 259.685 399.494 227.872 L 399.437 196.059 395.946 194.899 C 386.302 191.695,373.998 190.165,363.964 190.921 " stroke="none" fill="#fbfbfb" fill-rule="evenodd"></path><path id="path2" d="M199.718 0.169 L 399.550 0.225 399.582 94.201 C 399.601 145.887,399.682 204.291,399.762 223.986 C 399.858 247.276,399.925 214.380,399.955 129.899 L 400.000 0.000 199.944 0.056 L -0.113 0.112 199.718 0.169 " stroke="none" fill="#b6a93c" fill-rule="evenodd"></path><path id="path3" d="M113.791 3.829 C 113.791 4.262,113.837 4.440,113.894 4.223 C 113.951 4.006,113.951 3.651,113.894 3.435 C 113.837 3.218,113.791 3.395,113.791 3.829 M91.892 53.266 C 91.345 53.823,90.948 54.279,91.010 54.279 C 91.072 54.279,91.570 53.823,92.117 53.266 C 92.664 52.708,93.061 52.252,92.999 52.252 C 92.937 52.252,92.439 52.708,91.892 53.266 M87.838 57.320 C 87.291 57.877,86.894 58.333,86.956 58.333 C 87.018 58.333,87.516 57.877,88.063 57.320 C 88.610 56.762,89.007 56.306,88.945 56.306 C 88.883 56.306,88.385 56.762,87.838 57.320 M22.919 79.889 C 23.199 79.943,23.605 79.941,23.820 79.884 C 24.036 79.828,23.806 79.784,23.311 79.787 C 22.815 79.789,22.639 79.835,22.919 79.889 M36.208 79.889 C 36.488 79.943,36.893 79.941,37.108 79.884 C 37.324 79.828,37.095 79.784,36.599 79.787 C 36.104 79.789,35.927 79.835,36.208 79.889 M27.984 80.123 C 29.068 80.164,30.842 80.164,31.926 80.123 C 33.010 80.081,32.123 80.048,29.955 80.048 C 27.787 80.048,26.900 80.081,27.984 80.123 M368.863 190.705 C 369.389 190.753,370.251 190.753,370.777 190.705 C 371.303 190.658,370.873 190.619,369.820 190.619 C 368.767 190.619,368.336 190.658,368.863 190.705 M363.685 190.925 C 363.965 190.979,364.371 190.977,364.586 190.921 C 364.801 190.864,364.572 190.820,364.077 190.823 C 363.581 190.825,363.405 190.871,363.685 190.925 M374.944 190.925 C 375.222 190.978,375.678 190.978,375.957 190.925 C 376.236 190.871,376.008 190.827,375.450 190.827 C 374.893 190.827,374.665 190.871,374.944 190.925 M399.550 227.883 L 399.662 259.797 399.719 228.053 C 399.751 210.593,399.700 196.231,399.607 196.138 C 399.513 196.045,399.488 210.330,399.550 227.883 M309.681 215.484 L 306.869 218.356 309.741 215.544 C 311.320 213.997,312.613 212.705,312.613 212.672 C 312.613 212.510,312.293 212.817,309.681 215.484 " stroke="none" fill="#fcef88" fill-rule="evenodd"></path><path id="path4" d="" stroke="none" fill="#100dc54" fill-rule="evenodd"></path></g></svg>