<svg xmlns="http://www.w3.org/2000/svg" version="1.1" xmlns:xlink="http://www.w3.org/1999/xlink" xmlns:svgjs="http://svgjs.dev/svgjs" width="1000" height="472" viewBox="0 0 1000 472"><g transform="matrix(1,0,0,1,-0.6060606060606233,0.40954248085949985)"><svg viewBox="0 0 396 187" data-background-color="#674baf" preserveAspectRatio="xMidYMid meet" height="472" width="1000" xmlns="http://www.w3.org/2000/svg" xmlns:xlink="http://www.w3.org/1999/xlink"><defs></defs><g id="tight-bounds" transform="matrix(1,0,0,1,0.2400000000000091,-0.16225167377048422)"><svg viewBox="0 0 395.52 187.3245068515686" height="187.3245068515686" width="395.52"><g><svg viewBox="0 0 395.52 187.3245068515686" height="187.3245068515686" width="395.52"><g transform="matrix(1,0,0,1,0,115.77406032076942)"><svg viewBox="0 0 395.52 71.55044653079918" height="71.55044653079918" width="395.52"><g><svg viewBox="0 0 395.52 71.55044653079918" height="71.55044653079918" width="395.52"><g><svg viewBox="0 0 395.52 71.55044653079918" height="71.55044653079918" width="395.52"><g transform="matrix(1,0,0,1,0,0)"><svg width="395.52" viewBox="4 -38.79999923706055 218.3300018310547 39.5" height="71.55044653079918" data-palette-color="#ffffff"><path d="M14.4-35.05L14.4-35.05Q22.15-35.05 26.3-32.33 30.45-29.6 30.45-23.4L30.45-23.4Q30.45-17.15 26.25-14.38 22.05-11.6 14.25-11.6L14.25-11.6 11.8-11.6 11.8 0 4 0 4-34.15Q6.55-34.65 9.4-34.85 12.25-35.05 14.4-35.05ZM14.9-28.4L14.9-28.4Q14.05-28.4 13.23-28.35 12.4-28.3 11.8-28.25L11.8-28.25 11.8-18.25 14.25-18.25Q18.3-18.25 20.35-19.35 22.4-20.45 22.4-23.45L22.4-23.45Q22.4-24.9 21.88-25.85 21.35-26.8 20.38-27.38 19.4-27.95 18-28.18 16.6-28.4 14.9-28.4ZM44.75-5.2L44.75-5.2Q45.85-5.2 46.85-5.25 47.85-5.3 48.45-5.4L48.45-5.4 48.45-11.05Q48-11.15 47.1-11.25 46.2-11.35 45.45-11.35L45.45-11.35Q44.4-11.35 43.47-11.23 42.55-11.1 41.85-10.75 41.15-10.4 40.75-9.8 40.35-9.2 40.35-8.3L40.35-8.3Q40.35-6.55 41.52-5.88 42.7-5.2 44.75-5.2ZM44.15-27L44.15-27Q47.45-27 49.65-26.25 51.85-25.5 53.17-24.1 54.5-22.7 55.05-20.7 55.6-18.7 55.6-16.25L55.6-16.25 55.6-0.75Q54-0.4 51.15 0.08 48.3 0.55 44.25 0.55L44.25 0.55Q41.7 0.55 39.62 0.1 37.55-0.35 36.05-1.38 34.55-2.4 33.75-4.05 32.95-5.7 32.95-8.1L32.95-8.1Q32.95-10.4 33.87-12 34.8-13.6 36.35-14.55 37.9-15.5 39.9-15.93 41.9-16.35 44.05-16.35L44.05-16.35Q45.5-16.35 46.62-16.23 47.75-16.1 48.45-15.9L48.45-15.9 48.45-16.6Q48.45-18.5 47.3-19.65 46.15-20.8 43.3-20.8L43.3-20.8Q41.4-20.8 39.55-20.53 37.7-20.25 36.35-19.75L36.35-19.75 35.4-25.75Q36.05-25.95 37.02-26.18 38-26.4 39.15-26.58 40.3-26.75 41.57-26.88 42.85-27 44.15-27ZM79.45-25.85L78.2-19.7Q77.2-19.95 75.84-20.23 74.5-20.5 72.95-20.5L72.95-20.5Q72.25-20.5 71.27-20.38 70.3-20.25 69.8-20.1L69.8-20.1 69.8 0 62.35 0 62.35-24.9Q64.34-25.6 67.07-26.23 69.8-26.85 73.15-26.85L73.15-26.85Q73.75-26.85 74.59-26.78 75.45-26.7 76.3-26.58 77.15-26.45 78-26.28 78.84-26.1 79.45-25.85L79.45-25.85ZM90.89-38.8L90.89-16.8Q91.99-18 93.17-19.3 94.34-20.6 95.44-21.88 96.54-23.15 97.52-24.3 98.49-25.45 99.19-26.3L99.19-26.3 108.04-26.3Q105.39-23.25 102.87-20.48 100.34-17.7 97.34-14.75L97.34-14.75Q98.84-13.4 100.44-11.53 102.04-9.65 103.54-7.65 105.04-5.65 106.29-3.65 107.54-1.65 108.39 0L108.39 0 99.84 0Q99.04-1.3 98.02-2.88 96.99-4.45 95.84-6.03 94.69-7.6 93.42-9.05 92.14-10.5 90.89-11.5L90.89-11.5 90.89 0 83.44 0 83.44-37.6 90.89-38.8ZM133.79-21.4L133.79-34.65 141.59-34.65 141.59 0 133.79 0 133.79-14.7 120.69-14.7 120.69 0 112.89 0 112.89-34.65 120.69-34.65 120.69-21.4 133.79-21.4ZM147.84-12.95L147.84-12.95Q147.84-16.45 148.91-19.07 149.99-21.7 151.74-23.45 153.49-25.2 155.76-26.1 158.04-27 160.44-27L160.44-27Q166.04-27 169.29-23.58 172.54-20.15 172.54-13.5L172.54-13.5Q172.54-12.85 172.49-12.08 172.44-11.3 172.39-10.7L172.39-10.7 155.49-10.7Q155.74-8.4 157.64-7.05 159.54-5.7 162.74-5.7L162.74-5.7Q164.79-5.7 166.76-6.08 168.74-6.45 169.99-7L169.99-7 170.99-0.95Q170.39-0.65 169.39-0.35 168.39-0.05 167.16 0.18 165.94 0.4 164.54 0.55 163.14 0.7 161.74 0.7L161.74 0.7Q158.19 0.7 155.56-0.35 152.94-1.4 151.21-3.23 149.49-5.05 148.66-7.55 147.84-10.05 147.84-12.95ZM155.49-15.8L165.34-15.8Q165.29-16.75 165.01-17.65 164.74-18.55 164.16-19.25 163.59-19.95 162.71-20.4 161.84-20.85 160.54-20.85L160.54-20.85Q159.29-20.85 158.39-20.43 157.49-20 156.89-19.3 156.29-18.6 155.96-17.68 155.64-16.75 155.49-15.8L155.49-15.8ZM195.39-25.85L194.14-19.7Q193.14-19.95 191.79-20.23 190.44-20.5 188.89-20.5L188.89-20.5Q188.19-20.5 187.21-20.38 186.24-20.25 185.74-20.1L185.74-20.1 185.74 0 178.29 0 178.29-24.9Q180.29-25.6 183.01-26.23 185.74-26.85 189.09-26.85L189.09-26.85Q189.69-26.85 190.54-26.78 191.39-26.7 192.24-26.58 193.09-26.45 193.94-26.28 194.79-26.1 195.39-25.85L195.39-25.85ZM197.63-12.95L197.63-12.95Q197.63-16.45 198.71-19.07 199.78-21.7 201.53-23.45 203.28-25.2 205.56-26.1 207.83-27 210.23-27L210.23-27Q215.83-27 219.08-23.58 222.33-20.15 222.33-13.5L222.33-13.5Q222.33-12.85 222.28-12.08 222.23-11.3 222.18-10.7L222.18-10.7 205.28-10.7Q205.53-8.4 207.43-7.05 209.33-5.7 212.53-5.7L212.53-5.7Q214.58-5.7 216.56-6.08 218.53-6.45 219.78-7L219.78-7 220.78-0.95Q220.18-0.65 219.18-0.35 218.18-0.05 216.96 0.18 215.73 0.4 214.33 0.55 212.93 0.7 211.53 0.7L211.53 0.7Q207.98 0.7 205.36-0.35 202.73-1.4 201.01-3.23 199.28-5.05 198.46-7.55 197.63-10.05 197.63-12.95ZM205.28-15.8L215.13-15.8Q215.08-16.75 214.81-17.65 214.53-18.55 213.96-19.25 213.38-19.95 212.51-20.4 211.63-20.85 210.33-20.85L210.33-20.85Q209.08-20.85 208.18-20.43 207.28-20 206.68-19.3 206.08-18.6 205.76-17.68 205.43-16.75 205.28-15.8L205.28-15.8Z" opacity="1" transform="matrix(1,0,0,1,0,0)" fill="#ffffff" class="undefined-text-0" data-fill-palette-color="primary" id="text-0"></path></svg></g></svg></g></svg></g></svg></g><g transform="matrix(1,0,0,1,127.94584277661599,0)"><svg viewBox="0 0 139.628314446768 98.88271710556447" height="98.88271710556447" width="139.628314446768"><g><svg xmlns:x="http://ns.adobe.com/Extensibility/1.0/" xmlns:i="http://ns.adobe.com/AdobeIllustrator/10.0/" xmlns:graph="http://ns.adobe.com/Graphs/1.0/" xmlns="http://www.w3.org/2000/svg" xmlns:xlink="http://www.w3.org/1999/xlink" xmlns:a="http://ns.adobe.com/AdobeSVGViewerExtensions/3.0/" version="1.0" x="8.000000000000007" y="0" viewBox="1.0190001726150513 14.23800277709961 97.98100280761719 78.36900329589844" enable-background="new 0 0 100 100" xml:space="preserve" height="98.88271710556447" width="123.62831444676799" class="icon-icon-0" data-fill-palette-color="accent" id="icon-0"><g fill="#ffffff" data-fill-palette-color="accent"><path d="M97.943 37.106c-1.031-1.671-3.146-2.237-4.275-2.237-1.131 0-1.377 1.205-1.377 1.205v4.153c0 0 0.002 0.007 0.002 0.018l-1.199 0.597c-0.91-4.512-2.02-9.807-2.998-13.875-2.297-9.542-3.865-12.729-5.523-12.729h-2.594c-0.51 0-0.953 0.172-1.225 0.434 0 0-23.715-0.433-28.721-0.434-0.004 0-0.006 0-0.01 0-0.008 0-0.018 0-0.026 0-0.004 0-0.006 0-0.009 0-5.007 0-28.72 0.434-28.72 0.434-0.271-0.262-0.718-0.434-1.226-0.434h-2.595c-1.658 0-3.228 3.187-5.523 12.729-0.978 4.068-2.088 9.363-2.998 13.875l-1.201-0.597c0.002-0.011 0.003-0.018 0.003-0.018v-4.153c0 0-0.246-1.205-1.376-1.205-1.13 0-3.244 0.565-4.276 2.237s-1.057 2.825-1.057 3.98c0 1.156 0.614 3.612 2.752 4.375 2.138 0.762 3.146 0.639 3.146-0.024 0-0.024 0-0.054 0.003-0.087l1.065 0.224c-0.019 0.091-0.037 0.188-0.054 0.275 2.195 1.263 5.36 2.494 9.369 2.494h32.685 32.728c4.01 0 7.174-1.231 9.371-2.494-0.02-0.087-0.037-0.184-0.055-0.275l1.064-0.224c0.004 0.033 0.004 0.063 0.004 0.088 0 0.663 1.006 0.786 3.145 0.024C98.385 44.699 99 42.243 99 41.087 99 39.932 98.977 38.778 97.943 37.106zM17.186 47.303c-1.612 0-2.918-1.306-2.918-2.917 0-1.612 1.307-2.918 2.918-2.918 1.611 0 2.917 1.306 2.917 2.918C20.103 45.997 18.797 47.303 17.186 47.303zM50.01 40.521c-5.818-0.038-14.405-0.176-22.979-0.613-9.131-0.464-11.542-0.719-12.12-3.63-1.33-6.7 2.659-17.642 2.659-17.642s10.845-1.022 19.174-1.233c3.876-0.098 8.94-0.105 13.246-0.083v0c0.007 0 0.015 0 0.021 0 0.008 0 0.016 0 0.023 0v0c4.305-0.021 9.369-0.015 13.246 0.083 8.326 0.211 19.172 1.233 19.172 1.233s3.988 10.942 2.658 17.642c-0.576 2.911-2.988 3.166-12.119 3.63C64.414 40.346 55.828 40.484 50.01 40.521zM82.834 47.303c-1.609 0-2.914-1.306-2.914-2.917 0-1.612 1.305-2.918 2.914-2.918 1.613 0 2.922 1.306 2.922 2.918C85.756 45.997 84.447 47.303 82.834 47.303z" fill="#ffffff" data-fill-palette-color="accent"></path><path d="M77.955 57.33c0.203 0 0.402 0.014 0.596 0.035 1.26-1.996 3.355-3.244 5.551-4.533 0.961-0.562 1.955-1.146 2.885-1.805 0.693-0.488 1.078-1.455 1.256-2.672-1.609 0.467-3.455 0.774-5.525 0.774H50.033h-0.044H17.304c-2.069 0-3.915-0.307-5.527-0.774 0.18 1.217 0.566 2.184 1.257 2.672 0.931 0.658 1.925 1.24 2.887 1.805 2.194 1.289 4.29 2.539 5.55 4.535 0.205-0.023 0.414-0.037 0.626-0.037 2.496 0 4.52 1.574 4.52 3.516 0 0.305-0.055 0.598-0.146 0.875 1.511 0 45.825 0 47.112 0-0.092-0.277-0.146-0.57-0.146-0.875C73.436 58.904 75.461 57.33 77.955 57.33z" fill="#ffffff" data-fill-palette-color="accent"></path><path d="M92.289 46.666c-0.922 0.516-2.002 1.017-3.23 1.433-0.184 1.578-0.658 2.893-1.619 3.571-0.955 0.678-1.963 1.27-2.941 1.842-1.988 1.168-3.895 2.301-5.092 4.008 1.783 0.469 3.068 1.781 3.068 3.326 0 0.334-0.064 0.654-0.174 0.959 5.41 0.199 7.365 0.842 8.064 1.242l-0.15 0.857c-0.051-0.029-0.098-0.066-0.133-0.119-0.008-0.01-1.174-0.977-8.197-1.205-0.775 1.062-2.244 1.781-3.93 1.781-1.705 0-3.191-0.734-3.959-1.82-3.283 0.006-6.91-0.002-6.91-0.002-0.193 1.18-0.887 2.059-1.715 2.059H50.033h-0.044H34.65c-0.829 0-1.522-0.879-1.717-2.059 0 0-3.603 0.008-6.876 0.002-0.77 1.086-2.253 1.82-3.96 1.82-1.686 0-3.154-0.719-3.931-1.783-7.051 0.229-8.219 1.195-8.227 1.207-0.036 0.053-0.083 0.09-0.134 0.119l-0.15-0.857c0.701-0.402 2.661-1.043 8.096-1.244-0.11-0.305-0.174-0.623-0.174-0.957 0-1.539 1.274-2.846 3.044-3.318-1.198-1.711-3.105-2.846-5.099-4.016-0.975-0.572-1.984-1.164-2.942-1.842-0.958-0.678-1.434-1.995-1.618-3.571-1.229-0.417-2.308-0.917-3.229-1.433-3.264 4.383-2.818 16.61-0.154 25.125-0.004 0.049-0.013 0.096-0.013 0.15v18.012c0 1.465 2.113 2.654 4.718 2.654h0.794c2.606 0 4.718-1.189 4.718-2.654v-5.785h32.192 0.044 32.191v5.785c0 1.465 2.111 2.654 4.719 2.654h0.795c2.604 0 4.715-1.189 4.715-2.654V71.941c0-0.055-0.006-0.102-0.01-0.15C95.107 63.275 95.553 51.049 92.289 46.666zM21.655 77.801c-1.477 0-2.675-1.195-2.675-2.676 0-1.475 1.198-2.672 2.675-2.672 1.478 0 2.674 1.197 2.674 2.672C24.33 76.605 23.133 77.801 21.655 77.801zM71.207 74.771c-0.701 2.908-2.924 4.512-5.414 4.512h-15.76-0.044H34.229c-2.492 0-4.712-1.604-5.414-4.512 0 0-1.754-4.512 4.511-4.512h16.662 0.044 16.66C72.959 70.26 71.207 74.771 71.207 74.771zM78.363 77.801c-1.475 0-2.672-1.195-2.672-2.676 0-1.475 1.197-2.672 2.672-2.672 1.48 0 2.678 1.197 2.678 2.672C81.041 76.605 79.844 77.801 78.363 77.801z" fill="#ffffff" data-fill-palette-color="accent"></path></g></svg></g></svg></g><g><rect width="127.94584277661599" height="6.45249310820829" y="91.43022399735617" x="267.57415722338396" fill="#ffffff" data-fill-palette-color="accent"></rect><rect width="127.94584277661599" height="6.45249310820829" y="91.43022399735617" x="0" fill="#ffffff" data-fill-palette-color="accent"></rect><rect width="127.94584277661599" height="6.45249310820829" y="78.52523778093959" x="267.57415722338396" fill="#ffffff" data-fill-palette-color="accent"></rect><rect width="127.94584277661599" height="6.45249310820829" y="78.52523778093959" x="0" fill="#ffffff" data-fill-palette-color="accent"></rect></g></svg></g></svg><rect width="395.52" height="187.3245068515686" fill="none" stroke="none" visibility="hidden"></rect></g></svg></g></svg>